<svg version="1.1" xmlns="http://www.w3.org/2000/svg" viewBox="0 0 1111.5500907290912 284.0168097678572" width="1111.5500907290912" height="284.0168097678572">
  <!-- svg-source:excalidraw -->
  
  <defs>
    <style class="style-fonts">
      @font-face {
        font-family: "Virgil";
        src: url("https://excalidraw.com/Virgil.woff2");
      }
      @font-face {
        font-family: "Cascadia";
        src: url("https://excalidraw.com/Cascadia.woff2");
      }
      @font-face {
        font-family: "Assistant";
        src: url("https://excalidraw.com/Assistant-Regular.woff2");
      }
    </style>
    
  </defs>
  <g stroke-linecap="round"><g transform="translate(14.453666232861565 216.00000762939453) rotate(0 543.2000274658203 -0.8000030517578125)"><path d="M-0.66 -1.08 C180.26 -1.51, 905.54 -1.57, 1086.65 -1.46 M1.2 0.97 C181.89 1.27, 905.2 0.67, 1085.84 0.15" stroke="#1e1e1e" stroke-width="2" fill="none"></path></g></g><mask></mask><g stroke-linecap="round"><g transform="translate(11.25368454340844 174.4000015258789) rotate(0 0 49.600006103515625)"><path d="M0.13 -0.74 C0.48 15.83, 1.17 83.08, 1.15 99.62 M-1.25 1.49 C-0.88 17.67, 0.73 81.39, 0.8 97.71" stroke="#1e1e1e" stroke-width="2" fill="none"></path></g></g><mask></mask><g stroke-linecap="round"><g transform="translate(1100.053672336377 164.2084018321708) rotate(0 0 40.29579679509624)"><path d="M-0.46 0.59 C-0.36 14.05, 1.03 67.35, 0.99 80.73 M1.5 -0.15 C1.49 13.53, 1.11 68.6, 0.56 82.35" stroke="#1e1e1e" stroke-width="2" fill="none"></path></g></g><mask></mask><g stroke-linecap="round"><g transform="translate(548.8536601293459 159.19998931884766) rotate(0 -0.79998779296875 49.59999084472656)"><path d="M0.17 -0.77 C0.23 15.95, -0.15 83.02, -0.44 99.71 M-1.21 1.44 C-1.13 17.85, -0.6 81.3, -0.78 97.85" stroke="#1e1e1e" stroke-width="2" fill="none"></path></g></g><mask></mask><g stroke-linecap="round"><g transform="translate(288.8537211645022 168.00003814697266) rotate(0 0.79998779296875 40.80000305175781)"><path d="M-0.79 -0.94 C-0.27 12.49, 2.4 67.47, 2.69 81.2 M0.99 1.17 C1.49 14.72, 2.51 68.94, 2.32 82.53" stroke="#1e1e1e" stroke-width="2" fill="none"></path></g></g><mask></mask><g stroke-linecap="round"><g transform="translate(829.6536479223147 161.8083774181083) rotate(0 0 47.89580289861186)"><path d="M0.73 0.36 C0.79 16.31, -0.04 80.47, -0.28 96.27 M-0.34 -0.5 C-0.41 15.04, -1.73 78.3, -1.38 94.4" stroke="#1e1e1e" stroke-width="2" fill="none"></path></g></g><mask></mask><g transform="translate(423.25368454340844 10) rotate(0 123.1201171875 50.43583749999999)"><text x="0" y="0" font-family="Cascadia, Segoe UI Emoji" font-size="84.05972916666666px" fill="#1e1e1e" text-anchor="start" style="white-space: pre;" direction="ltr" dominant-baseline="text-before-edge">March</text></g><g transform="translate(94.45369675043969 156.00000762939453) rotate(0 63.28125 21.599999999999994)"><text x="0" y="0" font-family="Cascadia, Segoe UI Emoji" font-size="36px" fill="#1e1e1e" text-anchor="start" style="white-space: pre;" direction="ltr" dominant-baseline="text-before-edge">Week 1</text></g><g transform="translate(355.2537455785647 155.20001983642578) rotate(0 63.28125 21.599999999999994)"><text x="0" y="0" font-family="Cascadia, Segoe UI Emoji" font-size="36px" fill="#1e1e1e" text-anchor="start" style="white-space: pre;" direction="ltr" dominant-baseline="text-before-edge">Week 2</text></g><g transform="translate(638.4537577855959 151.20001983642578) rotate(0 63.28125 21.599999999999994)"><text x="0" y="0" font-family="Cascadia, Segoe UI Emoji" font-size="36px" fill="#1e1e1e" text-anchor="start" style="white-space: pre;" direction="ltr" dominant-baseline="text-before-edge">Week 3</text></g><g transform="translate(903.2537455785647 147.20001983642578) rotate(0 63.28125 21.599999999999994)"><text x="0" y="0" font-family="Cascadia, Segoe UI Emoji" font-size="36px" fill="#1e1e1e" text-anchor="start" style="white-space: pre;" direction="ltr" dominant-baseline="text-before-edge">Week 4</text></g></svg>